<?xml version="1.0" standalone="no"?>
<!DOCTYPE svg PUBLIC "-//W3C//DTD SVG 20010904//EN"
 "http://www.w3.org/TR/2001/REC-SVG-20010904/DTD/svg10.dtd">
<svg version="1.0" xmlns="http://www.w3.org/2000/svg"
 width="512.000000pt" height="512.000000pt" viewBox="0 0 512.000000 512.000000"
 preserveAspectRatio="xMidYMid meet">
<metadata>
Created by potrace 1.14, written by Peter Selinger 2001-2017
</metadata>
<g transform="translate(0.000000,512.000000) scale(0.100000,-0.100000)"
fill="#000000" stroke="none">
<path d="M35 5085 l-25 -24 0 -551 0 -551 25 -24 c31 -32 69 -32 100 0 l25 24
0 501 0 501 58 -1 c31 -1 256 -1 500 -1 l443 1 24 25 c32 31 32 69 0 100 l-24
25 -551 0 -551 0 -24 -25z"/>
<path d="M3935 5085 c-14 -13 -25 -36 -25 -50 0 -14 11 -37 25 -50 l24 -25
478 -1 c263 -1 488 0 501 1 l22 1 0 -501 0 -501 25 -24 c31 -32 69 -32 100 0
l25 24 0 551 0 551 -25 24 -24 25 -551 0 -551 0 -24 -25z"/>
<path d="M432 4729 c-48 -18 -47 -9 -47 -557 l0 -514 24 -24 24 -24 514 0 514
0 24 25 25 24 0 514 c0 503 0 514 -20 535 -12 12 -26 23 -33 23 -46 5 -1011 3
-1025 -2z m916 -148 c10 -1 12 -86 10 -408 l-3 -408 -410 0 -410 0 -1 405 c0
223 1 407 2 410 2 4 771 5 812 1z"/>
<path d="M1700 4724 c-15 -7 -30 -19 -34 -29 -3 -9 -6 -94 -6 -189 0 -160 2
-174 20 -194 25 -26 -2 -24 315 -26 l260 -1 5 -318 5 -319 24 -19 c21 -17 41
-19 198 -19 171 0 174 0 198 25 l25 24 0 514 c0 503 0 514 -20 535 -12 12 -24
23 -28 23 -4 1 -216 2 -471 3 -330 1 -471 -2 -491 -10z m852 -143 c4 0 7 -185
7 -411 l0 -410 -74 0 -75 0 0 315 c0 310 0 314 -22 335 -12 11 -24 21 -27 21
-3 1 -127 2 -276 3 l-270 1 -3 64 c-2 35 -1 69 1 75 3 8 109 11 368 10 200 -1
367 -2 371 -3z"/>
<path d="M2982 4729 c-48 -18 -47 -10 -48 -548 0 -318 3 -513 9 -526 21 -42
33 -44 255 -45 l213 0 24 25 25 24 0 514 c0 503 0 514 -20 535 -12 12 -28 23
-38 23 -62 5 -406 3 -420 -2z m321 -148 c4 0 7 -186 7 -411 l0 -411 -112 3
-113 3 0 405 c0 223 3 407 7 410 5 4 185 5 211 1z"/>
<path d="M3726 4725 c-37 -18 -42 -46 -41 -224 1 -236 -30 -215 323 -216 l277
0 0 -463 0 -463 24 -25 c23 -24 25 -24 201 -24 188 0 196 2 218 48 5 9 8 313
8 674 l-1 658 -23 22 -22 23 -471 0 c-310 0 -479 -3 -493 -10z m859 -703 l0
-563 -75 3 -75 3 0 462 0 463 -23 22 c-22 22 -26 23 -290 23 -147 0 -272 3
-277 7 -8 5 -14 143 -6 143 0 0 169 0 373 0 l373 0 0 -563z"/>
<path d="M411 3364 c-33 -29 -33 -80 0 -108 l25 -22 799 2 c440 1 810 2 821 3
54 3 70 106 21 133 -17 10 -208 13 -832 13 l-809 0 -25 -21z"/>
<path d="M2694 3382 c-12 -2 -30 -12 -40 -24 -17 -18 -19 -41 -19 -274 0 -250
0 -254 23 -276 l22 -23 653 -1 c377 0 664 4 680 9 16 5 33 20 38 34 12 32 12
484 0 516 -6 14 -20 29 -33 33 -21 7 -1276 13 -1324 6z m1211 -297 l0 -150
-553 0 c-359 0 -556 3 -560 10 -4 5 -7 71 -7 145 0 99 3 136 12 140 7 3 259 5
560 5 l548 0 0 -150z"/>
<path d="M4333 3079 c-45 -17 -47 -29 -48 -278 l0 -236 -410 -2 c-226 -1 -468
-3 -538 -3 -122 0 -129 -1 -152 -25 -25 -24 -25 -27 -25 -200 0 -173 0 -176
25 -200 l24 -25 738 0 c776 1 757 0 780 45 6 12 9 186 9 452 l-1 432 -22 23
c-22 21 -31 22 -192 23 -93 1 -178 -2 -188 -6z m247 -148 c3 0 5 -151 5 -334
l0 -332 -637 -3 -638 -2 0 75 0 75 538 0 c528 0 539 0 560 20 27 25 24 0 26
265 1 121 4 225 8 231 5 8 110 12 138 5z"/>
<path d="M409 2986 c-23 -24 -24 -32 -25 -183 -2 -173 5 -214 39 -232 15 -7
111 -12 292 -14 l269 -2 1 -387 1 -388 22 -22 c22 -22 29 -23 202 -23 173 0
180 1 202 23 l23 22 1 583 c0 363 -3 590 -9 602 -22 45 -19 44 -518 45 l-477
0 -23 -24z m876 -609 c0 -310 -3 -481 -10 -485 -17 -11 -135 -8 -136 3 -1 5
-2 177 -3 380 -1 204 -5 379 -9 391 -14 40 -40 44 -322 47 l-269 2 -1 73 -1
72 376 -2 375 -3 0 -478z"/>
<path d="M1685 2985 l-25 -24 0 -580 c0 -333 4 -590 9 -604 5 -14 22 -29 38
-34 21 -7 617 -11 656 -4 4 0 16 10 27 21 20 20 20 33 20 610 l0 591 -25 24
-24 25 -326 0 -326 0 -24 -25z m573 -612 l-3 -487 -220 -1 -220 0 -3 488 -2
487 225 0 225 0 -2 -487z"/>
<path d="M409 2386 l-24 -24 0 -291 c0 -285 1 -291 22 -313 29 -28 77 -28 106
0 21 21 22 29 22 260 l0 237 115 2 c63 2 125 5 137 8 48 11 61 95 20 127 -19
15 -47 18 -198 18 -173 0 -177 0 -200 -24z"/>
<path d="M2885 2385 l-25 -24 0 -289 c0 -276 1 -289 20 -310 12 -12 26 -23 33
-23 61 -7 1678 -3 1696 3 32 12 50 37 51 71 0 24 -28 65 -47 68 -5 1 -366 2
-803 3 l-795 1 -5 244 c-5 240 -5 243 -29 262 -32 26 -67 24 -96 -6z"/>
<path d="M419 1497 c-9 -7 -20 -21 -26 -32 -6 -12 -9 -212 -9 -527 l1 -507 23
-23 22 -23 508 -1 c317 0 514 3 527 9 45 23 44 17 45 555 l0 513 -25 24 -24
25 -513 0 c-388 -1 -517 -4 -529 -13z m941 -550 l0 -412 -404 0 c-222 0 -408
4 -413 8 -4 5 -8 190 -8 413 l0 404 413 0 412 -1 0 -412z"/>
<path d="M1768 1496 c-29 -22 -34 -56 -32 -216 2 -191 0 -175 26 -200 20 -19
34 -20 222 -20 l201 0 0 -315 c0 -313 0 -315 23 -337 21 -22 29 -23 202 -23
173 0 180 1 202 23 l23 22 0 507 c0 519 -1 542 -38 565 -7 4 -192 8 -412 8
-313 -1 -404 -3 -417 -14z m717 -551 l0 -410 -75 0 -75 0 0 313 0 313 -23 24
c-23 24 -27 25 -225 27 l-202 3 -1 65 c0 36 1 68 3 73 3 4 138 6 301 5 l297
-3 0 -410z"/>
<path d="M2885 1485 l-25 -24 0 -285 c0 -156 3 -292 6 -301 7 -17 52 -42 72
-39 6 1 16 2 22 3 5 0 18 11 30 23 19 21 20 34 20 260 l0 238 165 0 c152 0
167 2 185 20 11 11 21 25 21 30 1 6 2 16 3 23 3 19 -22 64 -39 71 -9 3 -111 6
-226 6 -210 0 -210 0 -234 -25z"/>
<path d="M3635 1485 l-25 -24 0 -513 c1 -538 0 -532 45 -555 12 -6 211 -9 527
-9 l507 1 23 23 23 22 1 498 c0 273 -3 510 -8 526 -15 57 1 55 -556 56 l-513
0 -24 -25z m949 -527 c-1 -222 -2 -408 -3 -413 -1 -7 -143 -10 -408 -10 l-408
0 -3 413 -2 412 412 0 413 0 -1 -402z"/>
<path d="M35 1185 l-25 -24 0 -551 0 -551 25 -24 24 -25 551 0 551 0 25 25
c32 33 30 80 -6 106 -23 18 -55 19 -522 19 l-498 1 0 500 0 500 -25 24 c-13
14 -36 25 -50 25 -14 0 -37 -11 -50 -25z"/>
<path d="M4985 1185 l-25 -24 -1 -478 c-1 -263 0 -488 1 -500 l1 -23 -501 0
-501 0 -24 -25 c-14 -13 -25 -36 -25 -50 0 -14 11 -37 25 -50 l24 -25 551 0
551 0 24 25 25 24 0 551 0 551 -25 24 c-13 14 -36 25 -50 25 -14 0 -37 -11
-50 -25z"/>
<path d="M3262 1040 c-27 -25 -24 -1 -27 -265 -1 -121 -3 -225 -4 -230 -1 -7
-53 -10 -148 -10 -82 1 -159 -2 -172 -7 -65 -23 -68 -104 -6 -135 11 -5 110
-9 227 -9 202 1 208 2 230 24 23 22 23 25 24 300 0 152 -4 289 -9 305 -16 49
-76 63 -115 27z"/>
</g>
</svg>
